<svg xmlns="http://www.w3.org/2000/svg" x="0px" y="0px" width="512" height="512" viewBox="0 0 64 64">
<linearGradient id="GdeByWRAcrxkNrB1xXKVla_ZMc42tPbG32H_gr1" x1="32" x2="32" y1="57" y2="7" gradientUnits="userSpaceOnUse"><stop offset="0" stop-color="#c822ff"></stop><stop offset="1" stop-color="#1a6dff"></stop></linearGradient><path fill="none" stroke="url(#GdeByWRAcrxkNrB1xXKVla)" stroke-miterlimit="10" stroke-width="2" d="M62,30.45v3.1	c-2.77,0.31-4.93,2.4-5.95,5.67c-1.02,3.31-1.16,7.37-1.05,10.51c0.11,3.26-2.43,6.27-5.87,6.27H14.87c-3.44,0-5.98-3.01-5.87-6.27	c0.11-3.14-0.03-7.2-1.05-10.51C6.93,35.95,4.77,33.86,2,33.55v-3.1c2.77-0.31,4.93-2.4,5.95-5.67C8.97,21.47,9.11,17.41,9,14.27	C8.89,11.01,11.43,8,14.87,8h34.26c3.44,0,5.98,3.01,5.87,6.27c-0.11,3.14,0.03,7.2,1.05,10.51C57.07,28.05,59.23,30.14,62,30.45z"></path><linearGradient id="GdeByWRAcrxkNrB1xXKVlb_ZMc42tPbG32H_gr2" x1="32" x2="32" y1="53" y2="11" gradientUnits="userSpaceOnUse"><stop offset="0" stop-color="#e6abff"></stop><stop offset="1" stop-color="#6dc7ff"></stop></linearGradient><path fill="url(#GdeByWRAcrxkNrB1xXKVlb_ZMc42tPbG32H_gr2)" d="M14.87,53c-0.95,0-1.599-0.465-1.976-0.854c-0.599-0.619-0.925-1.462-0.896-2.314	c0.11-3.134-0.005-7.677-1.181-11.495C9.942,35.533,8.351,33.342,6.303,32c2.048-1.341,3.639-3.529,4.511-6.326	c1.18-3.829,1.295-8.372,1.185-11.51c-0.028-0.848,0.298-1.691,0.896-2.31C13.271,11.465,13.92,11,14.87,11h34.26	c0.95,0,1.599,0.465,1.976,0.854c0.599,0.619,0.925,1.462,0.896,2.314c-0.11,3.134,0.005,7.677,1.181,11.495	c0.875,2.804,2.467,4.995,4.515,6.337c-2.048,1.341-3.639,3.529-4.511,6.326c-1.18,3.829-1.295,8.372-1.185,11.51	c0.028,0.848-0.298,1.691-0.896,2.31C50.729,52.535,50.08,53,49.13,53H14.87z M36.713,31.135c2.657-0.428,4.744-2.891,4.744-5.65	c0-3.93-3.105-6.485-7.829-6.485H23l0,25.99h10.689c5.66,0,9.07-2.769,9.07-7.35c0-3.461-2.433-5.955-6.047-6.352V31.135z M32.631,22.298c2.993,0,4.693,1.334,4.693,3.746c0,2.576-1.975,4.011-5.558,4.011H27v-7.757H32.631z M27,41.692V33.14h5.6	c3.909,0,5.935,1.435,5.935,4.245c0,2.81-1.975,4.306-5.701,4.306H27z"></path>
</svg>
